<?xml version="1.0" standalone="no"?>
<!DOCTYPE svg PUBLIC "-//W3C//DTD SVG 20010904//EN"
 "http://www.w3.org/TR/2001/REC-SVG-20010904/DTD/svg10.dtd">
<svg version="1.0" xmlns="http://www.w3.org/2000/svg"
 width="200.000000pt" height="200.000000pt" viewBox="0 0 200.000000 200.000000"
 preserveAspectRatio="xMidYMid meet">
<metadata>
Created by potrace 1.14, written by Peter Selinger 2001-2017
</metadata>
<g transform="translate(0.000000,200.000000) scale(0.100000,-0.100000)"
fill="#000000" stroke="none">
<path d="M563 1644 c-3 -8 4 -35 16 -58 27 -55 26 -58 -5 -46 -19 7 -31 7 -40
-1 -21 -17 -17 -35 12 -57 l27 -19 -50 -6 c-68 -8 -118 -30 -139 -61 -10 -16
-19 -55 -22 -96 -5 -69 -5 -69 -39 -81 -47 -15 -101 -71 -109 -113 -12 -69 31
-138 109 -171 36 -15 37 -17 37 -65 0 -46 -2 -50 -27 -56 -98 -21 -158 -61
-198 -128 -30 -52 -27 -78 13 -104 22 -14 51 -17 182 -17 146 0 157 -1 184
-23 62 -48 207 -65 365 -42 50 7 70 6 92 -6 21 -10 68 -14 186 -14 87 0 164 4
171 9 8 5 31 2 54 -6 28 -9 59 -12 94 -7 32 4 80 1 118 -7 73 -14 63 -18 190
79 46 35 56 48 56 73 0 17 -6 32 -15 35 -25 10 -17 29 23 55 48 31 55 74 18
129 -49 74 -165 149 -232 150 -39 0 -112 -47 -154 -99 l-33 -40 -25 19 c-19
15 -40 20 -88 20 -35 0 -64 3 -64 8 0 4 11 72 25 151 48 274 36 303 -145 359
-72 22 -233 48 -352 58 l-77 6 6 49 c5 39 3 50 -11 55 -9 3 -22 1 -30 -5 -11
-9 -16 -5 -26 19 -23 55 -83 89 -97 54z m567 -454 c52 -27 80 -68 80 -120 0
-113 -182 -180 -297 -109 -97 60 -95 176 4 228 53 28 159 28 213 1z m-650 -15
c120 -60 64 -215 -78 -215 -126 0 -194 102 -121 184 45 52 130 65 199 31z
m201 -241 c4 -16 7 -51 8 -77 2 -91 19 -133 65 -163 74 -49 126 -96 126 -115
0 -36 -45 -52 -138 -52 -91 0 -163 15 -197 40 -18 14 -8 15 101 9 66 -4 135
-10 152 -15 33 -10 56 4 32 19 -32 20 -202 31 -412 28 -225 -3 -268 1 -268 28
0 22 70 93 114 116 48 25 160 35 224 20 41 -10 44 -9 53 16 33 89 101 186 124
179 5 -2 13 -17 16 -33z m1019 -264 c0 -24 13 -26 30 -5 21 25 40 18 40 -14 0
-23 5 -30 22 -33 18 -2 8 -13 -56 -60 -93 -70 -116 -74 -116 -20 0 70 35 152
65 152 8 0 15 -9 15 -20z"/>
<path d="M1055 1115 c-27 -26 -32 -60 -11 -87 45 -60 146 -31 146 42 0 32 -44
70 -80 70 -19 0 -40 -9 -55 -25z m113 -42 c5 -17 -26 -29 -40 -15 -6 6 -7 15
-3 22 9 14 37 9 43 -7z"/>
<path d="M292 1124 c-26 -18 -30 -65 -6 -88 20 -20 78 -21 94 -1 20 24 15 67
-10 87 -27 22 -49 23 -78 2z m76 -37 c2 -12 -3 -17 -17 -17 -12 0 -21 6 -21
13 0 31 32 34 38 4z"/>
</g>
</svg>
